<svg xmlns="http://www.w3.org/2000/svg" viewBox="0 0 600 400" width="600" height="400">
  <rect width="600" height="400" fill="#FFF8F0"/>
  <rect x="50" y="30" width="500" height="340" rx="20" fill="#F5E6D3"/>
  <!-- Plate -->
  <ellipse cx="300" cy="220" rx="180" ry="100" fill="#FFF"/>
  <ellipse cx="300" cy="220" rx="170" ry="95" fill="#FAFAFA" stroke="#E0E0E0" stroke-width="1"/>
  <!-- Milanesas stacked - slightly different shape for bife -->
  <ellipse cx="300" cy="235" rx="130" ry="45" fill="#B8862D"/>
  <ellipse cx="300" cy="230" rx="128" ry="43" fill="#C49A38"/>
  <ellipse cx="295" cy="215" rx="125" ry="42" fill="#B8862D"/>
  <ellipse cx="295" cy="210" rx="123" ry="40" fill="#C49A38"/>
  <ellipse cx="290" cy="197" rx="120" ry="38" fill="#B8862D"/>
  <ellipse cx="290" cy="193" rx="118" ry="36" fill="#D4A843"/>
  <!-- Texture -->
  <circle cx="255" cy="210" r="3" fill="#A67C2E" opacity="0.4"/>
  <circle cx="285" cy="205" r="2.5" fill="#A67C2E" opacity="0.3"/>
  <circle cx="315" cy="215" r="3" fill="#A67C2E" opacity="0.4"/>
  <circle cx="330" cy="200" r="2" fill="#A67C2E" opacity="0.3"/>
  <circle cx="270" cy="195" r="2.5" fill="#A67C2E" opacity="0.35"/>
  <!-- Label -->
  <text x="300" y="75" text-anchor="middle" font-family="serif" font-weight="bold" font-size="32" fill="#3E2723">Milanesas de</text>
  <text x="300" y="110" text-anchor="middle" font-family="serif" font-weight="bold" font-size="32" fill="#3E2723">Bife de Chorizo</text>
  <text x="300" y="145" text-anchor="middle" font-family="sans-serif" font-size="20" fill="#5D4037">Premium · 2kg</text>
  <text x="300" y="370" text-anchor="middle" font-family="serif" font-weight="bold" font-size="28" fill="#D4A843">$50</text>
</svg>
